<svg width="1032" height="211" viewBox="0 0 1032 211" fill="none" xmlns="http://www.w3.org/2000/svg">
<g clip-path="url(#clip0)">
<rect x="199" y="54" width="30" height="154" fill="#00C2FF"/>
<rect x="301" y="105" width="30" height="103" fill="#00C2FF"/>
<rect x="250" y="13" width="30" height="195" fill="#F75252"/>
<path d="M73.0938 116.734C49.9375 110.078 33.0625 101.922 22.4688 92.2656C11.9688 82.5156 6.71875 70.5156 6.71875 56.2656C6.71875 40.1406 13.1406 26.8281 25.9844 16.3281C38.9219 5.73438 55.7031 0.4375 76.3281 0.4375C90.3906 0.4375 102.906 3.15625 113.875 8.59375C124.938 14.0313 133.469 21.5312 139.469 31.0938C145.562 40.6562 148.609 51.1094 148.609 62.4531H121.469C121.469 50.0781 117.531 40.375 109.656 33.3438C101.781 26.2187 90.6719 22.6562 76.3281 22.6562C63.0156 22.6562 52.6094 25.6094 45.1094 31.5156C37.7031 37.3281 34 45.4375 34 55.8438C34 64.1875 37.5156 71.2656 44.5469 77.0781C51.6719 82.7969 63.7188 88.0469 80.6875 92.8281C97.75 97.6094 111.062 102.906 120.625 108.719C130.281 114.438 137.406 121.141 142 128.828C146.688 136.516 149.031 145.562 149.031 155.969C149.031 172.562 142.562 185.875 129.625 195.906C116.688 205.844 99.3906 210.812 77.7344 210.812C63.6719 210.812 50.5469 208.141 38.3594 202.797C26.1719 197.359 16.75 189.953 10.0938 180.578C3.53125 171.203 0.25 160.562 0.25 148.656H27.3906C27.3906 161.031 31.9375 170.828 41.0312 178.047C50.2188 185.172 62.4531 188.734 77.7344 188.734C91.9844 188.734 102.906 185.828 110.5 180.016C118.094 174.203 121.891 166.281 121.891 156.25C121.891 146.219 118.375 138.484 111.344 133.047C104.312 127.516 91.5625 122.078 73.0938 116.734ZM456.859 125.172H408.766V208H381.625V3.25H449.406C472.469 3.25 490.188 8.5 502.562 19C515.031 29.5 521.266 44.7812 521.266 64.8438C521.266 77.5938 517.797 88.7031 510.859 98.1719C504.016 107.641 494.453 114.719 482.172 119.406L530.266 206.312V208H501.297L456.859 125.172ZM408.766 103.094H450.25C463.656 103.094 474.297 99.625 482.172 92.6875C490.141 85.75 494.125 76.4688 494.125 64.8438C494.125 52.1875 490.328 42.4844 482.734 35.7344C475.234 28.9844 464.359 25.5625 450.109 25.4688H408.766V103.094ZM689.453 25.4688H623.641V208H596.781V25.4688H531.109V3.25H689.453V25.4688ZM835.562 113.359H746.828V185.922H849.906V208H719.828V3.25H848.5V25.4688H746.828V91.2812H835.562V113.359ZM883.516 208V3.25H941.312C959.125 3.25 974.875 7.1875 988.562 15.0625C1002.25 22.9375 1012.8 34.1406 1020.2 48.6719C1027.7 63.2031 1031.5 79.8906 1031.59 98.7344V111.812C1031.59 131.125 1027.84 148.047 1020.34 162.578C1012.94 177.109 1002.3 188.266 988.422 196.047C974.641 203.828 958.562 207.812 940.188 208H883.516ZM910.516 25.4688V185.922H938.922C959.734 185.922 975.906 179.453 987.438 166.516C999.062 153.578 1004.88 135.156 1004.88 111.25V99.2969C1004.88 76.0469 999.391 58 988.422 45.1562C977.547 32.2188 962.078 25.6562 942.016 25.4688H910.516Z" fill="black"/>
</g>
<defs>
<clipPath id="clip0">
<rect width="1032" height="211" fill="white"/>
</clipPath>
</defs>
</svg>
